<svg xmlns="http://www.w3.org/2000/svg" xmlns:xlink="http://www.w3.org/1999/xlink" width="100" zoomAndPan="magnify" viewBox="0 0 75 74.999997" height="100" preserveAspectRatio="xMidYMid meet" version="1.0"><defs><g/><clipPath id="83f3019419"><path d="M 52 25 L 71.25 25 L 71.25 43.71875 L 52 43.71875 Z M 52 25 " clip-rule="nonzero"/></clipPath><clipPath id="982adb5bd2"><path d="M 54 24.96875 L 71.25 24.96875 L 71.25 42 L 54 42 Z M 54 24.96875 " clip-rule="nonzero"/></clipPath><clipPath id="209e39ce2b"><path d="M 53.976562 24.96875 L 71.226562 24.96875 L 71.226562 42.21875 L 53.976562 42.21875 Z M 53.976562 24.96875 " clip-rule="nonzero"/></clipPath></defs><path fill="#285b28" d="M 61.539062 42.972656 L 8.660156 42.972656 C 8.09375 42.972656 7.53125 42.917969 6.972656 42.804688 C 6.417969 42.695312 5.875 42.53125 5.351562 42.3125 C 4.828125 42.097656 4.328125 41.828125 3.855469 41.515625 C 3.386719 41.199219 2.949219 40.839844 2.546875 40.4375 C 2.144531 40.039062 1.789062 39.601562 1.472656 39.128906 C 1.15625 38.65625 0.890625 38.160156 0.671875 37.632812 C 0.457031 37.109375 0.292969 36.570312 0.179688 36.011719 C 0.0703125 35.457031 0.015625 34.894531 0.015625 34.324219 C 0.015625 33.757812 0.0703125 33.195312 0.179688 32.636719 C 0.292969 32.082031 0.457031 31.539062 0.671875 31.015625 C 0.890625 30.492188 1.15625 29.992188 1.472656 29.519531 C 1.785156 29.050781 2.144531 28.613281 2.546875 28.210938 C 2.949219 27.808594 3.386719 27.449219 3.855469 27.136719 C 4.328125 26.820312 4.828125 26.554688 5.351562 26.335938 C 5.875 26.117188 6.417969 25.957031 6.972656 25.84375 C 7.53125 25.734375 8.09375 25.679688 8.660156 25.679688 L 61.539062 25.679688 C 61.804688 25.679688 62.058594 25.730469 62.300781 25.828125 C 62.546875 25.929688 62.761719 26.074219 62.949219 26.261719 C 63.136719 26.449219 63.28125 26.664062 63.382812 26.910156 C 63.480469 27.152344 63.53125 27.40625 63.53125 27.671875 L 63.53125 40.980469 C 63.53125 41.242188 63.480469 41.496094 63.382812 41.742188 C 63.28125 41.984375 63.136719 42.199219 62.949219 42.386719 C 62.761719 42.574219 62.546875 42.71875 62.300781 42.820312 C 62.058594 42.921875 61.804688 42.972656 61.539062 42.972656 Z M 61.539062 42.972656 " fill-opacity="1" fill-rule="nonzero"/><path fill="#3cd63c" d="M 61.191406 41.25 L 9.007812 41.25 C 8.496094 41.25 7.992188 41.199219 7.488281 41.101562 C 6.988281 41 6.5 40.851562 6.027344 40.65625 C 5.554688 40.460938 5.105469 40.222656 4.679688 39.9375 C 4.257812 39.652344 3.863281 39.328125 3.5 38.96875 C 3.140625 38.605469 2.816406 38.214844 2.53125 37.789062 C 2.246094 37.363281 2.007812 36.914062 1.8125 36.441406 C 1.617188 35.96875 1.46875 35.480469 1.367188 34.980469 C 1.269531 34.476562 1.21875 33.972656 1.21875 33.460938 C 1.21875 32.949219 1.269531 32.441406 1.367188 31.941406 C 1.46875 31.4375 1.617188 30.953125 1.8125 30.480469 C 2.007812 30.007812 2.246094 29.558594 2.53125 29.132812 C 2.816406 28.707031 3.140625 28.3125 3.5 27.953125 C 3.863281 27.589844 4.253906 27.265625 4.679688 26.984375 C 5.105469 26.699219 5.554688 26.460938 6.027344 26.261719 C 6.5 26.066406 6.988281 25.917969 7.488281 25.820312 C 7.992188 25.71875 8.496094 25.671875 9.007812 25.671875 L 61.191406 25.671875 C 61.34375 25.671875 61.488281 25.699219 61.625 25.757812 C 61.765625 25.816406 61.890625 25.898438 61.996094 26.003906 C 62.101562 26.109375 62.183594 26.234375 62.242188 26.371094 C 62.300781 26.511719 62.328125 26.65625 62.328125 26.808594 L 62.328125 40.113281 C 62.328125 40.265625 62.300781 40.410156 62.242188 40.546875 C 62.183594 40.6875 62.101562 40.808594 61.996094 40.917969 C 61.890625 41.023438 61.765625 41.105469 61.625 41.164062 C 61.488281 41.222656 61.34375 41.25 61.191406 41.25 Z M 61.191406 41.25 " fill-opacity="1" fill-rule="nonzero"/><g clip-path="url(#83f3019419)"><path fill="#285b28" d="M 71.058594 34.265625 C 71.058594 34.863281 71 35.453125 70.886719 36.039062 C 70.769531 36.625 70.597656 37.191406 70.367188 37.742188 C 70.140625 38.292969 69.859375 38.816406 69.53125 39.3125 C 69.199219 39.808594 68.820312 40.265625 68.398438 40.6875 C 67.980469 41.109375 67.519531 41.484375 67.023438 41.816406 C 66.527344 42.148438 66.003906 42.429688 65.453125 42.65625 C 64.902344 42.882812 64.335938 43.058594 63.75 43.171875 C 63.167969 43.289062 62.574219 43.347656 61.980469 43.347656 C 61.382812 43.347656 60.792969 43.289062 60.207031 43.171875 C 59.625 43.058594 59.054688 42.882812 58.503906 42.65625 C 57.953125 42.429688 57.429688 42.148438 56.933594 41.816406 C 56.4375 41.484375 55.980469 41.109375 55.558594 40.6875 C 55.136719 40.265625 54.761719 39.808594 54.429688 39.3125 C 54.097656 38.816406 53.816406 38.292969 53.589844 37.742188 C 53.363281 37.191406 53.191406 36.625 53.074219 36.039062 C 52.957031 35.453125 52.898438 34.863281 52.898438 34.265625 C 52.898438 33.671875 52.957031 33.082031 53.074219 32.496094 C 53.191406 31.910156 53.363281 31.34375 53.589844 30.792969 C 53.816406 30.242188 54.097656 29.71875 54.429688 29.222656 C 54.761719 28.726562 55.136719 28.269531 55.558594 27.847656 C 55.980469 27.425781 56.4375 27.046875 56.933594 26.71875 C 57.429688 26.386719 57.953125 26.105469 58.503906 25.878906 C 59.054688 25.648438 59.625 25.476562 60.207031 25.359375 C 60.792969 25.246094 61.382812 25.1875 61.980469 25.1875 C 62.574219 25.1875 63.167969 25.246094 63.75 25.359375 C 64.335938 25.476562 64.902344 25.648438 65.453125 25.878906 C 66.003906 26.105469 66.527344 26.386719 67.023438 26.71875 C 67.519531 27.046875 67.980469 27.425781 68.398438 27.847656 C 68.820312 28.269531 69.199219 28.726562 69.53125 29.222656 C 69.859375 29.71875 70.140625 30.242188 70.367188 30.792969 C 70.597656 31.34375 70.769531 31.910156 70.886719 32.496094 C 71 33.082031 71.058594 33.671875 71.058594 34.265625 Z M 71.058594 34.265625 " fill-opacity="1" fill-rule="nonzero"/></g><g clip-path="url(#982adb5bd2)"><path fill="#3cd63c" d="M 71.347656 33.460938 C 71.347656 34.019531 71.292969 34.570312 71.183594 35.117188 C 71.074219 35.664062 70.914062 36.195312 70.699219 36.710938 C 70.488281 37.222656 70.226562 37.714844 69.917969 38.175781 C 69.605469 38.640625 69.253906 39.070312 68.859375 39.464844 C 68.464844 39.859375 68.039062 40.210938 67.574219 40.519531 C 67.109375 40.828125 66.621094 41.089844 66.105469 41.304688 C 65.589844 41.515625 65.058594 41.679688 64.515625 41.785156 C 63.96875 41.894531 63.414062 41.949219 62.859375 41.949219 C 62.300781 41.949219 61.746094 41.894531 61.203125 41.785156 C 60.65625 41.679688 60.125 41.515625 59.609375 41.304688 C 59.09375 41.089844 58.605469 40.828125 58.140625 40.519531 C 57.675781 40.210938 57.25 39.859375 56.855469 39.464844 C 56.460938 39.070312 56.109375 38.640625 55.796875 38.175781 C 55.488281 37.714844 55.226562 37.222656 55.015625 36.710938 C 54.800781 36.195312 54.640625 35.664062 54.53125 35.117188 C 54.421875 34.570312 54.367188 34.019531 54.367188 33.460938 C 54.367188 32.902344 54.421875 32.351562 54.53125 31.804688 C 54.640625 31.257812 54.800781 30.726562 55.015625 30.210938 C 55.226562 29.695312 55.488281 29.207031 55.796875 28.742188 C 56.109375 28.28125 56.460938 27.851562 56.855469 27.457031 C 57.25 27.0625 57.675781 26.710938 58.140625 26.402344 C 58.605469 26.089844 59.09375 25.832031 59.609375 25.617188 C 60.125 25.402344 60.65625 25.242188 61.203125 25.132812 C 61.746094 25.023438 62.300781 24.96875 62.859375 24.96875 C 63.414062 24.96875 63.96875 25.023438 64.515625 25.132812 C 65.058594 25.242188 65.589844 25.402344 66.105469 25.617188 C 66.621094 25.832031 67.109375 26.089844 67.574219 26.402344 C 68.039062 26.710938 68.464844 27.0625 68.859375 27.457031 C 69.253906 27.851562 69.605469 28.28125 69.917969 28.742188 C 70.226562 29.207031 70.488281 29.695312 70.699219 30.210938 C 70.914062 30.726562 71.074219 31.257812 71.183594 31.804688 C 71.292969 32.351562 71.347656 32.902344 71.347656 33.460938 Z M 71.347656 33.460938 " fill-opacity="1" fill-rule="nonzero"/></g><path fill="#3cd63c" d="M 57.882812 31.902344 C 57.597656 31.015625 57.597656 30.371094 58.003906 29.503906 C 58.410156 28.636719 59.054688 28.320312 59.691406 28.304688 C 60.328125 28.292969 60.363281 28.890625 60.949219 29.855469 C 61.535156 30.820312 61.457031 30.699219 61.398438 30.910156 C 61.230469 31.332031 60.171875 31.84375 60.140625 32.15625 C 60.105469 32.46875 60.246094 32.8125 60.957031 33.777344 C 61.664062 34.738281 62.597656 35.410156 62.917969 35.613281 C 63.242188 35.816406 63.90625 36.335938 64.214844 36.125 C 64.519531 35.914062 65.078125 35.046875 65.394531 34.878906 C 65.714844 34.714844 67.019531 35.632812 67.496094 35.914062 C 67.976562 36.199219 68.015625 36.316406 68.019531 36.4375 C 68.105469 37.460938 67.265625 38.269531 66.132812 38.542969 C 65 38.816406 63.628906 38.238281 62.597656 37.632812 C 59.207031 35.652344 58.171875 32.789062 57.882812 31.902344 Z M 63.738281 32.617188 C 63.636719 32.515625 63.519531 32.464844 63.378906 32.464844 C 63.238281 32.464844 63.117188 32.511719 63.019531 32.609375 C 62.917969 32.710938 62.867188 32.828125 62.867188 32.96875 C 62.867188 33.109375 62.914062 33.230469 63.011719 33.328125 C 63.109375 33.429688 63.230469 33.480469 63.371094 33.480469 C 63.511719 33.480469 63.632812 33.433594 63.730469 33.335938 C 63.832031 33.234375 63.882812 33.117188 63.882812 32.976562 C 63.882812 32.835938 63.835938 32.714844 63.738281 32.617188 Z M 64.769531 33.710938 C 64.941406 33.75 65.132812 33.519531 65.109375 33.214844 C 65.085938 32.960938 65.019531 32.722656 64.914062 32.492188 C 64.808594 32.261719 64.664062 32.054688 64.488281 31.875 C 64.308594 31.695312 64.105469 31.550781 63.878906 31.4375 C 63.648438 31.328125 63.410156 31.261719 63.15625 31.234375 C 62.855469 31.203125 62.621094 31.394531 62.65625 31.566406 C 62.691406 31.738281 62.890625 31.847656 63.089844 31.867188 C 63.460938 31.90625 63.773438 32.058594 64.035156 32.320312 C 64.292969 32.582031 64.4375 32.898438 64.472656 33.269531 C 64.492188 33.472656 64.601562 33.675781 64.773438 33.710938 Z M 65.808594 33.585938 C 65.980469 33.621094 66.164062 33.417969 66.164062 33.140625 C 66.160156 32.753906 66.085938 32.378906 65.9375 32.019531 C 65.789062 31.660156 65.578125 31.34375 65.308594 31.066406 C 65.035156 30.792969 64.71875 30.578125 64.363281 30.421875 C 64.007812 30.269531 63.632812 30.1875 63.246094 30.183594 C 62.96875 30.175781 62.761719 30.359375 62.796875 30.53125 C 62.828125 30.703125 63.027344 30.816406 63.234375 30.820312 C 63.539062 30.824219 63.832031 30.890625 64.113281 31.007812 C 64.390625 31.128906 64.636719 31.296875 64.851562 31.515625 C 65.066406 31.734375 65.230469 31.980469 65.347656 32.261719 C 65.464844 32.546875 65.523438 32.839844 65.523438 33.144531 C 65.527344 33.351562 65.636719 33.554688 65.808594 33.585938 Z M 65.808594 33.585938 " fill-opacity="1" fill-rule="nonzero"/><path fill="#3cd63c" d="M 9.328125 34.25 L 10.261719 34.546875 C 10.121094 35.066406 9.878906 35.457031 9.546875 35.707031 C 9.214844 35.960938 8.789062 36.085938 8.277344 36.085938 C 7.640625 36.085938 7.121094 35.871094 6.710938 35.4375 C 6.304688 35.003906 6.097656 34.410156 6.097656 33.660156 C 6.097656 32.863281 6.304688 32.246094 6.714844 31.804688 C 7.125 31.367188 7.667969 31.144531 8.335938 31.144531 C 8.921875 31.144531 9.394531 31.320312 9.761719 31.664062 C 9.976562 31.867188 10.140625 32.160156 10.25 32.542969 L 9.292969 32.773438 C 9.25 32.53125 9.128906 32.335938 8.9375 32.1875 C 8.746094 32.035156 8.53125 31.964844 8.285156 31.972656 C 7.9375 31.960938 7.652344 32.089844 7.425781 32.355469 C 7.203125 32.609375 7.09375 33.019531 7.09375 33.589844 C 7.09375 34.195312 7.203125 34.625 7.417969 34.878906 C 7.640625 35.148438 7.921875 35.273438 8.265625 35.265625 C 8.519531 35.269531 8.738281 35.1875 8.929688 35.023438 C 9.113281 34.855469 9.246094 34.597656 9.328125 34.25 Z M 9.328125 34.25 " fill-opacity="1" fill-rule="nonzero"/><path fill="#3cd63c" d="M 10.894531 33.644531 C 10.894531 33.160156 10.96875 32.75 11.113281 32.421875 C 11.222656 32.175781 11.371094 31.957031 11.558594 31.765625 C 11.734375 31.578125 11.941406 31.4375 12.175781 31.335938 C 12.507812 31.203125 12.847656 31.140625 13.207031 31.144531 C 13.910156 31.144531 14.472656 31.363281 14.894531 31.800781 C 15.320312 32.238281 15.53125 32.847656 15.53125 33.625 C 15.53125 34.394531 15.320312 35 14.898438 35.433594 C 14.480469 35.871094 13.917969 36.089844 13.21875 36.089844 C 12.507812 36.089844 11.941406 35.871094 11.523438 35.4375 C 11.101562 35.003906 10.894531 34.40625 10.894531 33.644531 Z M 11.890625 33.613281 C 11.890625 34.15625 12.015625 34.566406 12.265625 34.84375 C 12.386719 34.976562 12.527344 35.078125 12.695312 35.152344 C 12.859375 35.226562 13.03125 35.261719 13.210938 35.261719 C 13.394531 35.261719 13.566406 35.226562 13.730469 35.15625 C 13.898438 35.082031 14.039062 34.980469 14.164062 34.847656 C 14.410156 34.570312 14.53125 34.152344 14.53125 33.601562 C 14.53125 33.050781 14.410156 32.644531 14.167969 32.375 C 13.925781 32.105469 13.609375 31.972656 13.21875 31.972656 C 12.820312 31.972656 12.5 32.109375 12.253906 32.382812 C 12.011719 32.65625 11.890625 33.066406 11.890625 33.613281 Z M 11.890625 33.613281 " fill-opacity="1" fill-rule="nonzero"/><path fill="#3cd63c" d="M 16.292969 36.007812 L 16.292969 31.226562 L 17.230469 31.226562 L 19.1875 34.417969 L 19.1875 31.226562 L 20.085938 31.226562 L 20.085938 36.007812 L 19.117188 36.007812 L 17.1875 32.894531 L 17.1875 36.007812 Z M 16.292969 36.007812 " fill-opacity="1" fill-rule="nonzero"/><path fill="#3cd63c" d="M 22.179688 36.007812 L 22.179688 32.03125 L 20.761719 32.03125 L 20.761719 31.226562 L 24.558594 31.226562 L 24.558594 32.03125 L 23.144531 32.03125 L 23.144531 36.003906 Z M 22.179688 36.007812 " fill-opacity="1" fill-rule="nonzero"/><path fill="#3cd63c" d="M 28.996094 36.007812 L 27.945312 36.007812 L 27.527344 34.921875 L 25.617188 34.921875 L 25.222656 36.007812 L 24.199219 36.007812 L 26.0625 31.226562 L 27.082031 31.226562 Z M 27.21875 34.117188 L 26.5625 32.34375 L 25.917969 34.117188 Z M 27.21875 34.117188 " fill-opacity="1" fill-rule="nonzero"/><path fill="#3cd63c" d="M 32.566406 34.25 L 33.5 34.546875 C 33.359375 35.066406 33.121094 35.457031 32.785156 35.707031 C 32.453125 35.960938 32.027344 36.085938 31.515625 36.085938 C 30.878906 36.085938 30.359375 35.871094 29.949219 35.4375 C 29.542969 35.003906 29.335938 34.410156 29.335938 33.660156 C 29.335938 32.863281 29.542969 32.246094 29.953125 31.804688 C 30.363281 31.367188 30.902344 31.144531 31.574219 31.144531 C 32.15625 31.144531 32.632812 31.316406 33 31.664062 C 33.214844 31.867188 33.378906 32.160156 33.488281 32.542969 L 32.53125 32.773438 C 32.484375 32.53125 32.367188 32.335938 32.175781 32.1875 C 31.984375 32.035156 31.769531 31.964844 31.527344 31.972656 C 31.175781 31.960938 30.890625 32.089844 30.664062 32.355469 C 30.441406 32.609375 30.332031 33.019531 30.332031 33.589844 C 30.332031 34.195312 30.441406 34.625 30.660156 34.878906 C 30.878906 35.148438 31.160156 35.273438 31.503906 35.265625 C 31.757812 35.269531 31.976562 35.1875 32.167969 35.023438 C 32.351562 34.855469 32.484375 34.597656 32.566406 34.25 Z M 32.566406 34.25 " fill-opacity="1" fill-rule="nonzero"/><path fill="#3cd63c" d="M 35.40625 36.007812 L 35.40625 32.03125 L 33.988281 32.03125 L 33.988281 31.226562 L 37.785156 31.226562 L 37.785156 32.03125 L 36.371094 32.03125 L 36.371094 36.003906 Z M 35.40625 36.007812 " fill-opacity="1" fill-rule="nonzero"/><path fill="#3cd63c" d="M 40.253906 31.226562 L 41.21875 31.226562 L 41.21875 33.816406 C 41.21875 34.226562 41.230469 34.492188 41.253906 34.613281 C 41.292969 34.808594 41.390625 34.964844 41.550781 35.085938 C 41.707031 35.203125 41.917969 35.261719 42.1875 35.261719 C 42.457031 35.261719 42.664062 35.207031 42.804688 35.09375 C 42.945312 34.988281 43.027344 34.851562 43.058594 34.683594 C 43.09375 34.414062 43.105469 34.144531 43.101562 33.871094 L 43.101562 31.226562 L 44.066406 31.226562 L 44.066406 33.738281 C 44.066406 34.3125 44.039062 34.714844 43.988281 34.953125 C 43.941406 35.179688 43.84375 35.378906 43.699219 35.554688 C 43.542969 35.726562 43.355469 35.859375 43.136719 35.941406 C 42.902344 36.039062 42.59375 36.089844 42.214844 36.089844 C 41.761719 36.089844 41.414062 36.035156 41.179688 35.929688 C 40.960938 35.839844 40.773438 35.699219 40.621094 35.519531 C 40.488281 35.363281 40.398438 35.1875 40.347656 34.988281 C 40.285156 34.714844 40.253906 34.3125 40.253906 33.777344 Z M 40.253906 31.226562 " fill-opacity="1" fill-rule="nonzero"/><path fill="#3cd63c" d="M 44.839844 34.453125 L 45.777344 34.359375 C 45.835938 34.675781 45.949219 34.90625 46.121094 35.054688 C 46.296875 35.203125 46.527344 35.277344 46.820312 35.277344 C 47.132812 35.277344 47.367188 35.210938 47.523438 35.078125 C 47.679688 34.964844 47.757812 34.808594 47.761719 34.617188 C 47.765625 34.507812 47.730469 34.414062 47.660156 34.328125 C 47.5625 34.230469 47.449219 34.160156 47.3125 34.121094 C 47.203125 34.082031 46.945312 34.011719 46.542969 33.914062 C 46.023438 33.785156 45.660156 33.628906 45.453125 33.441406 C 45.15625 33.1875 45.007812 32.867188 45.011719 32.480469 C 45.011719 32.230469 45.082031 32.003906 45.21875 31.796875 C 45.367188 31.574219 45.566406 31.410156 45.816406 31.3125 C 46.117188 31.191406 46.433594 31.136719 46.757812 31.144531 C 47.355469 31.144531 47.808594 31.277344 48.113281 31.539062 C 48.414062 31.804688 48.574219 32.152344 48.589844 32.59375 L 47.625 32.636719 C 47.582031 32.390625 47.496094 32.214844 47.359375 32.105469 C 47.222656 32 47.019531 31.945312 46.746094 31.945312 C 46.46875 31.945312 46.246094 32.003906 46.089844 32.117188 C 45.984375 32.1875 45.933594 32.285156 45.9375 32.414062 C 45.9375 32.535156 45.984375 32.628906 46.078125 32.703125 C 46.199219 32.804688 46.496094 32.914062 46.964844 33.023438 C 47.4375 33.132812 47.78125 33.25 48.003906 33.363281 C 48.226562 33.476562 48.402344 33.640625 48.53125 33.847656 C 48.667969 34.089844 48.730469 34.34375 48.722656 34.621094 C 48.714844 34.894531 48.640625 35.148438 48.496094 35.378906 C 48.335938 35.625 48.121094 35.804688 47.851562 35.914062 C 47.570312 36.03125 47.226562 36.089844 46.808594 36.089844 C 46.203125 36.089844 45.738281 35.949219 45.414062 35.667969 C 45.09375 35.390625 44.902344 34.984375 44.839844 34.453125 Z M 44.839844 34.453125 " fill-opacity="1" fill-rule="nonzero"/><g clip-path="url(#209e39ce2b)"><path fill="#10c03e" d="M 71.230469 33.59375 C 71.230469 34.160156 71.171875 34.722656 71.0625 35.277344 C 70.953125 35.832031 70.789062 36.371094 70.570312 36.894531 C 70.355469 37.417969 70.089844 37.917969 69.773438 38.386719 C 69.460938 38.859375 69.101562 39.292969 68.703125 39.695312 C 68.300781 40.09375 67.867188 40.453125 67.394531 40.765625 C 66.925781 41.082031 66.425781 41.347656 65.902344 41.5625 C 65.382812 41.78125 64.839844 41.945312 64.285156 42.054688 C 63.730469 42.164062 63.167969 42.21875 62.601562 42.21875 C 62.039062 42.21875 61.476562 42.164062 60.921875 42.054688 C 60.367188 41.945312 59.824219 41.78125 59.300781 41.5625 C 58.78125 41.347656 58.28125 41.082031 57.8125 40.765625 C 57.339844 40.453125 56.90625 40.09375 56.503906 39.695312 C 56.105469 39.292969 55.746094 38.859375 55.433594 38.386719 C 55.117188 37.917969 54.851562 37.417969 54.636719 36.894531 C 54.417969 36.371094 54.253906 35.832031 54.144531 35.277344 C 54.035156 34.722656 53.976562 34.160156 53.976562 33.59375 C 53.976562 33.027344 54.035156 32.46875 54.144531 31.914062 C 54.253906 31.355469 54.417969 30.816406 54.636719 30.292969 C 54.851562 29.769531 55.117188 29.273438 55.433594 28.804688 C 55.746094 28.332031 56.105469 27.898438 56.503906 27.496094 C 56.90625 27.09375 57.339844 26.738281 57.8125 26.421875 C 58.28125 26.109375 58.78125 25.84375 59.300781 25.625 C 59.824219 25.410156 60.367188 25.246094 60.921875 25.136719 C 61.476562 25.023438 62.039062 24.96875 62.601562 24.96875 C 63.167969 24.96875 63.730469 25.023438 64.285156 25.136719 C 64.839844 25.246094 65.382812 25.410156 65.902344 25.625 C 66.425781 25.84375 66.925781 26.109375 67.394531 26.421875 C 67.867188 26.738281 68.300781 27.09375 68.703125 27.496094 C 69.101562 27.898438 69.460938 28.332031 69.773438 28.804688 C 70.089844 29.273438 70.355469 29.769531 70.570312 30.292969 C 70.789062 30.816406 70.953125 31.355469 71.0625 31.914062 C 71.171875 32.46875 71.230469 33.027344 71.230469 33.59375 Z M 71.230469 33.59375 " fill-opacity="1" fill-rule="nonzero"/></g><path fill="#ffffff" d="M 65.742188 33.464844 C 65.617188 33.464844 65.519531 33.363281 65.519531 33.242188 C 65.523438 32.554688 65.257812 31.910156 64.773438 31.425781 C 64.292969 30.945312 63.652344 30.679688 62.972656 30.679688 C 62.96875 30.679688 62.960938 30.679688 62.957031 30.679688 C 62.835938 30.679688 62.734375 30.582031 62.734375 30.457031 C 62.734375 30.335938 62.832031 30.234375 62.957031 30.234375 C 63.761719 30.230469 64.519531 30.542969 65.085938 31.109375 C 65.65625 31.679688 65.96875 32.4375 65.964844 33.242188 C 65.964844 33.367188 65.863281 33.464844 65.742188 33.464844 Z M 65.742188 33.464844 " fill-opacity="1" fill-rule="nonzero"/><path fill="#ffffff" d="M 64.4375 33.550781 C 64.433594 33.550781 64.429688 33.550781 64.421875 33.550781 C 64.300781 33.542969 64.207031 33.4375 64.214844 33.3125 C 64.242188 32.953125 64.109375 32.597656 63.855469 32.34375 C 63.601562 32.089844 63.246094 31.957031 62.886719 31.980469 C 62.761719 31.992188 62.65625 31.898438 62.648438 31.777344 C 62.640625 31.652344 62.730469 31.546875 62.855469 31.539062 C 63.34375 31.503906 63.824219 31.683594 64.167969 32.027344 C 64.515625 32.375 64.695312 32.855469 64.660156 33.34375 C 64.652344 33.460938 64.554688 33.550781 64.4375 33.550781 Z M 64.4375 33.550781 " fill-opacity="1" fill-rule="nonzero"/><path fill="#ffffff" d="M 65.617188 36.195312 L 65.6875 35.824219 C 65.773438 35.359375 65.453125 34.917969 64.988281 34.855469 L 64.179688 34.746094 C 63.835938 34.699219 63.496094 34.875 63.335938 35.183594 C 63.222656 35.398438 62.972656 35.507812 62.738281 35.4375 C 61.726562 35.128906 61.066406 34.472656 60.761719 33.457031 C 60.691406 33.226562 60.796875 32.972656 61.015625 32.863281 C 61.324219 32.703125 61.5 32.363281 61.453125 32.015625 L 61.34375 31.210938 C 61.277344 30.742188 60.839844 30.425781 60.375 30.511719 L 60 30.578125 C 59.5625 30.660156 59.242188 31.042969 59.242188 31.492188 L 59.242188 31.890625 C 59.242188 32.769531 59.464844 33.636719 59.902344 34.402344 C 59.917969 34.425781 59.929688 34.453125 59.945312 34.476562 C 60.859375 36.019531 62.53125 36.957031 64.324219 36.957031 L 64.707031 36.957031 C 65.15625 36.957031 65.539062 36.636719 65.617188 36.195312 Z M 65.617188 36.195312 " fill-opacity="1" fill-rule="nonzero"/><path fill="#ffffff" d="M 62.601562 39.730469 C 61.328125 39.730469 60.109375 39.34375 59.070312 38.613281 L 57.300781 39.085938 L 57.222656 38.789062 L 59.132812 38.277344 L 59.191406 38.320312 C 60.1875 39.042969 61.367188 39.425781 62.601562 39.425781 C 64.160156 39.425781 65.625 38.816406 66.726562 37.714844 C 67.824219 36.617188 68.433594 35.152344 68.433594 33.59375 C 68.433594 32.039062 67.824219 30.574219 66.726562 29.472656 C 65.625 28.371094 64.160156 27.765625 62.601562 27.765625 C 61.046875 27.765625 59.582031 28.371094 58.480469 29.472656 C 57.378906 30.574219 56.773438 32.039062 56.773438 33.59375 C 56.773438 34.832031 57.15625 36.011719 57.878906 37.011719 L 57.632812 37.191406 C 56.871094 36.140625 56.46875 34.894531 56.46875 33.59375 C 56.46875 31.957031 57.105469 30.414062 58.265625 29.257812 C 59.421875 28.097656 60.964844 27.460938 62.601562 27.460938 C 64.242188 27.460938 65.785156 28.097656 66.941406 29.257812 C 68.101562 30.414062 68.738281 31.957031 68.738281 33.59375 C 68.738281 35.234375 68.101562 36.773438 66.941406 37.933594 C 65.785156 39.09375 64.242188 39.730469 62.601562 39.730469 Z M 62.601562 39.730469 " fill-opacity="1" fill-rule="nonzero"/><g fill="#000000" fill-opacity="1"><g transform="translate(4.008014, 36.117305)"><g><path d="M 3.1875 -5.546875 C 3.457031 -5.546875 3.679688 -5.519531 3.859375 -5.46875 C 4.046875 -5.425781 4.238281 -5.363281 4.4375 -5.28125 C 4.457031 -5.269531 4.507812 -5.242188 4.59375 -5.203125 C 4.6875 -5.171875 4.769531 -5.15625 4.84375 -5.15625 C 5.039062 -5.15625 5.160156 -5.285156 5.203125 -5.546875 L 5.375 -5.546875 L 5.375 -3.71875 L 5.203125 -3.71875 C 5.160156 -4.019531 5.054688 -4.28125 4.890625 -4.5 C 4.722656 -4.726562 4.515625 -4.898438 4.265625 -5.015625 C 4.023438 -5.140625 3.78125 -5.203125 3.53125 -5.203125 C 3.164062 -5.203125 2.847656 -5.09375 2.578125 -4.875 C 2.316406 -4.664062 2.113281 -4.367188 1.96875 -3.984375 C 1.832031 -3.609375 1.765625 -3.179688 1.765625 -2.703125 C 1.765625 -1.929688 1.914062 -1.320312 2.21875 -0.875 C 2.53125 -0.4375 2.957031 -0.21875 3.5 -0.21875 C 3.84375 -0.21875 4.148438 -0.300781 4.421875 -0.46875 C 4.691406 -0.632812 4.96875 -0.878906 5.25 -1.203125 L 5.25 -0.78125 C 4.957031 -0.46875 4.648438 -0.238281 4.328125 -0.09375 C 4.015625 0.0390625 3.648438 0.109375 3.234375 0.109375 C 2.660156 0.109375 2.15625 -0.0078125 1.71875 -0.25 C 1.28125 -0.488281 0.941406 -0.816406 0.703125 -1.234375 C 0.472656 -1.648438 0.359375 -2.113281 0.359375 -2.625 C 0.359375 -3.144531 0.484375 -3.628906 0.734375 -4.078125 C 0.992188 -4.523438 1.335938 -4.878906 1.765625 -5.140625 C 2.203125 -5.410156 2.675781 -5.546875 3.1875 -5.546875 Z M 3.1875 -5.546875 "/></g></g></g><g fill="#000000" fill-opacity="1"><g transform="translate(9.696508, 36.117305)"><g><path d="M 1.546875 -3.171875 L 1.5625 -3.171875 C 1.84375 -3.554688 2.179688 -3.75 2.578125 -3.75 C 2.921875 -3.75 3.171875 -3.640625 3.328125 -3.421875 C 3.484375 -3.203125 3.5625 -2.921875 3.5625 -2.578125 L 3.5625 -0.546875 C 3.5625 -0.453125 3.585938 -0.367188 3.640625 -0.296875 C 3.691406 -0.222656 3.765625 -0.171875 3.859375 -0.140625 L 3.859375 0 L 2.15625 0 L 2.15625 -0.140625 C 2.269531 -0.171875 2.351562 -0.21875 2.40625 -0.28125 C 2.457031 -0.351562 2.484375 -0.472656 2.484375 -0.640625 L 2.484375 -2.75 C 2.484375 -3.070312 2.367188 -3.234375 2.140625 -3.234375 C 2.046875 -3.234375 1.953125 -3.195312 1.859375 -3.125 C 1.765625 -3.0625 1.660156 -2.945312 1.546875 -2.78125 L 1.546875 -0.640625 C 1.546875 -0.484375 1.566406 -0.363281 1.609375 -0.28125 C 1.660156 -0.207031 1.742188 -0.160156 1.859375 -0.140625 L 1.859375 0 L 0.140625 0 L 0.140625 -0.140625 C 0.234375 -0.171875 0.300781 -0.203125 0.34375 -0.234375 C 0.382812 -0.273438 0.410156 -0.332031 0.421875 -0.40625 C 0.441406 -0.488281 0.453125 -0.617188 0.453125 -0.796875 L 0.453125 -4.828125 C 0.453125 -4.984375 0.421875 -5.09375 0.359375 -5.15625 C 0.304688 -5.21875 0.234375 -5.265625 0.140625 -5.296875 L 0.140625 -5.4375 L 1.546875 -5.4375 Z M 1.546875 -3.171875 "/></g></g></g><g fill="#000000" fill-opacity="1"><g transform="translate(13.652345, 36.117305)"><g><path d="M 2.015625 -3.75 C 2.460938 -3.75 2.789062 -3.65625 3 -3.46875 C 3.21875 -3.289062 3.328125 -3.0625 3.328125 -2.78125 L 3.328125 -0.828125 C 3.328125 -0.535156 3.398438 -0.390625 3.546875 -0.390625 C 3.585938 -0.390625 3.617188 -0.398438 3.640625 -0.421875 C 3.671875 -0.441406 3.707031 -0.484375 3.75 -0.546875 L 3.8125 -0.46875 C 3.738281 -0.289062 3.625 -0.148438 3.46875 -0.046875 C 3.3125 0.0546875 3.132812 0.109375 2.9375 0.109375 C 2.738281 0.109375 2.578125 0.0625 2.453125 -0.03125 C 2.328125 -0.132812 2.253906 -0.285156 2.234375 -0.484375 C 2.203125 -0.460938 2.15625 -0.425781 2.09375 -0.375 C 1.90625 -0.21875 1.734375 -0.0976562 1.578125 -0.015625 C 1.421875 0.0664062 1.238281 0.109375 1.03125 0.109375 C 0.832031 0.109375 0.660156 0.0351562 0.515625 -0.109375 C 0.378906 -0.253906 0.3125 -0.429688 0.3125 -0.640625 C 0.3125 -0.921875 0.429688 -1.164062 0.671875 -1.375 C 0.910156 -1.59375 1.171875 -1.769531 1.453125 -1.90625 L 2.234375 -2.28125 L 2.234375 -3 C 2.234375 -3.132812 2.191406 -3.25 2.109375 -3.34375 C 2.035156 -3.4375 1.910156 -3.484375 1.734375 -3.484375 C 1.578125 -3.484375 1.445312 -3.445312 1.34375 -3.375 C 1.238281 -3.3125 1.1875 -3.238281 1.1875 -3.15625 C 1.1875 -3.125 1.195312 -3.09375 1.21875 -3.0625 C 1.238281 -3.03125 1.257812 -3 1.28125 -2.96875 C 1.332031 -2.90625 1.367188 -2.847656 1.390625 -2.796875 C 1.421875 -2.742188 1.4375 -2.679688 1.4375 -2.609375 C 1.4375 -2.484375 1.390625 -2.378906 1.296875 -2.296875 C 1.203125 -2.222656 1.078125 -2.1875 0.921875 -2.1875 C 0.753906 -2.1875 0.617188 -2.226562 0.515625 -2.3125 C 0.410156 -2.40625 0.359375 -2.53125 0.359375 -2.6875 C 0.359375 -2.875 0.429688 -3.050781 0.578125 -3.21875 C 0.734375 -3.382812 0.9375 -3.515625 1.1875 -3.609375 C 1.4375 -3.703125 1.710938 -3.75 2.015625 -3.75 Z M 1.390625 -0.984375 C 1.390625 -0.859375 1.421875 -0.753906 1.484375 -0.671875 C 1.554688 -0.597656 1.648438 -0.5625 1.765625 -0.5625 C 1.847656 -0.5625 1.925781 -0.578125 2 -0.609375 C 2.070312 -0.640625 2.148438 -0.691406 2.234375 -0.765625 L 2.234375 -2.015625 C 1.671875 -1.722656 1.390625 -1.378906 1.390625 -0.984375 Z M 1.390625 -0.984375 "/></g></g></g><g fill="#000000" fill-opacity="1"><g transform="translate(17.608182, 36.117305)"><g><path d="M 1.53125 -4.984375 L 1.671875 -4.984375 L 1.671875 -3.671875 L 2.5 -3.671875 L 2.5 -3.265625 L 1.671875 -3.265625 L 1.671875 -0.75 C 1.671875 -0.644531 1.691406 -0.550781 1.734375 -0.46875 C 1.773438 -0.382812 1.847656 -0.34375 1.953125 -0.34375 C 2.128906 -0.34375 2.28125 -0.46875 2.40625 -0.71875 L 2.5 -0.578125 C 2.289062 -0.117188 1.957031 0.109375 1.5 0.109375 C 1.207031 0.109375 0.976562 0.0195312 0.8125 -0.15625 C 0.65625 -0.34375 0.578125 -0.570312 0.578125 -0.84375 L 0.578125 -3.265625 L 0.140625 -3.265625 L 0.140625 -3.421875 C 0.390625 -3.597656 0.660156 -3.851562 0.953125 -4.1875 C 1.253906 -4.519531 1.445312 -4.785156 1.53125 -4.984375 Z M 1.53125 -4.984375 "/></g></g></g><g fill="#000000" fill-opacity="1"><g transform="translate(20.242771, 36.117305)"><g/></g></g><g fill="#000000" fill-opacity="1"><g transform="translate(22.220684, 36.117305)"><g><path d="M 2.296875 -5.296875 C 2.117188 -5.296875 1.992188 -5.269531 1.921875 -5.21875 C 1.859375 -5.175781 1.828125 -5.097656 1.828125 -4.984375 C 1.828125 -4.921875 1.835938 -4.84375 1.859375 -4.75 C 1.890625 -4.664062 1.929688 -4.5625 1.984375 -4.4375 L 3.03125 -1.734375 L 3.890625 -3.78125 L 3.609375 -4.546875 C 3.503906 -4.828125 3.394531 -5.019531 3.28125 -5.125 C 3.164062 -5.238281 3.003906 -5.296875 2.796875 -5.296875 L 2.796875 -5.4375 L 5.34375 -5.4375 L 5.34375 -5.296875 L 5.25 -5.296875 C 5.0625 -5.296875 4.9375 -5.269531 4.875 -5.21875 C 4.8125 -5.175781 4.78125 -5.109375 4.78125 -5.015625 C 4.78125 -4.953125 4.800781 -4.859375 4.84375 -4.734375 L 5.90625 -1.859375 L 6.84375 -4.359375 C 6.9375 -4.617188 6.984375 -4.816406 6.984375 -4.953125 C 6.984375 -5.179688 6.804688 -5.296875 6.453125 -5.296875 L 6.453125 -5.4375 L 7.734375 -5.4375 L 7.734375 -5.296875 C 7.648438 -5.273438 7.570312 -5.21875 7.5 -5.125 C 7.425781 -5.039062 7.347656 -4.882812 7.265625 -4.65625 L 5.484375 0.109375 L 5.34375 0.109375 L 4.046875 -3.390625 L 2.59375 0.109375 L 2.4375 0.109375 L 0.5625 -4.765625 C 0.476562 -4.972656 0.40625 -5.109375 0.34375 -5.171875 C 0.289062 -5.242188 0.207031 -5.285156 0.09375 -5.296875 L 0.09375 -5.4375 L 2.296875 -5.4375 Z M 2.296875 -5.296875 "/></g></g></g><g fill="#000000" fill-opacity="1"><g transform="translate(30.053235, 36.117305)"><g><path d="M 1.109375 -5.546875 C 1.285156 -5.546875 1.429688 -5.484375 1.546875 -5.359375 C 1.660156 -5.242188 1.71875 -5.101562 1.71875 -4.9375 C 1.71875 -4.769531 1.660156 -4.625 1.546875 -4.5 C 1.429688 -4.382812 1.285156 -4.328125 1.109375 -4.328125 C 0.941406 -4.328125 0.796875 -4.382812 0.671875 -4.5 C 0.554688 -4.625 0.5 -4.769531 0.5 -4.9375 C 0.5 -5.101562 0.554688 -5.242188 0.671875 -5.359375 C 0.796875 -5.484375 0.941406 -5.546875 1.109375 -5.546875 Z M 1.640625 -0.59375 C 1.640625 -0.300781 1.769531 -0.148438 2.03125 -0.140625 L 2.03125 0 L 0.09375 0 L 0.09375 -0.140625 C 0.257812 -0.140625 0.375 -0.175781 0.4375 -0.25 C 0.507812 -0.320312 0.546875 -0.453125 0.546875 -0.640625 L 0.546875 -3.03125 C 0.546875 -3.207031 0.507812 -3.332031 0.4375 -3.40625 C 0.375 -3.488281 0.257812 -3.53125 0.09375 -3.53125 L 0.09375 -3.671875 L 1.640625 -3.671875 Z M 1.640625 -0.59375 "/></g></g></g><g fill="#000000" fill-opacity="1"><g transform="translate(32.197302, 36.117305)"><g><path d="M 1.53125 -4.984375 L 1.671875 -4.984375 L 1.671875 -3.671875 L 2.5 -3.671875 L 2.5 -3.265625 L 1.671875 -3.265625 L 1.671875 -0.75 C 1.671875 -0.644531 1.691406 -0.550781 1.734375 -0.46875 C 1.773438 -0.382812 1.847656 -0.34375 1.953125 -0.34375 C 2.128906 -0.34375 2.28125 -0.46875 2.40625 -0.71875 L 2.5 -0.578125 C 2.289062 -0.117188 1.957031 0.109375 1.5 0.109375 C 1.207031 0.109375 0.976562 0.0195312 0.8125 -0.15625 C 0.65625 -0.34375 0.578125 -0.570312 0.578125 -0.84375 L 0.578125 -3.265625 L 0.140625 -3.265625 L 0.140625 -3.421875 C 0.390625 -3.597656 0.660156 -3.851562 0.953125 -4.1875 C 1.253906 -4.519531 1.445312 -4.785156 1.53125 -4.984375 Z M 1.53125 -4.984375 "/></g></g></g><g fill="#000000" fill-opacity="1"><g transform="translate(34.83189, 36.117305)"><g><path d="M 1.546875 -3.171875 L 1.5625 -3.171875 C 1.84375 -3.554688 2.179688 -3.75 2.578125 -3.75 C 2.921875 -3.75 3.171875 -3.640625 3.328125 -3.421875 C 3.484375 -3.203125 3.5625 -2.921875 3.5625 -2.578125 L 3.5625 -0.546875 C 3.5625 -0.453125 3.585938 -0.367188 3.640625 -0.296875 C 3.691406 -0.222656 3.765625 -0.171875 3.859375 -0.140625 L 3.859375 0 L 2.15625 0 L 2.15625 -0.140625 C 2.269531 -0.171875 2.351562 -0.21875 2.40625 -0.28125 C 2.457031 -0.351562 2.484375 -0.472656 2.484375 -0.640625 L 2.484375 -2.75 C 2.484375 -3.070312 2.367188 -3.234375 2.140625 -3.234375 C 2.046875 -3.234375 1.953125 -3.195312 1.859375 -3.125 C 1.765625 -3.0625 1.660156 -2.945312 1.546875 -2.78125 L 1.546875 -0.640625 C 1.546875 -0.484375 1.566406 -0.363281 1.609375 -0.28125 C 1.660156 -0.207031 1.742188 -0.160156 1.859375 -0.140625 L 1.859375 0 L 0.140625 0 L 0.140625 -0.140625 C 0.234375 -0.171875 0.300781 -0.203125 0.34375 -0.234375 C 0.382812 -0.273438 0.410156 -0.332031 0.421875 -0.40625 C 0.441406 -0.488281 0.453125 -0.617188 0.453125 -0.796875 L 0.453125 -4.828125 C 0.453125 -4.984375 0.421875 -5.09375 0.359375 -5.15625 C 0.304688 -5.21875 0.234375 -5.265625 0.140625 -5.296875 L 0.140625 -5.4375 L 1.546875 -5.4375 Z M 1.546875 -3.171875 "/></g></g></g><g fill="#000000" fill-opacity="1"><g transform="translate(38.787727, 36.117305)"><g/></g></g><g fill="#000000" fill-opacity="1"><g transform="translate(40.765641, 36.117305)"><g><path d="M 2.796875 -5.296875 C 2.566406 -5.296875 2.398438 -5.25 2.296875 -5.15625 C 2.191406 -5.0625 2.140625 -4.894531 2.140625 -4.65625 L 2.140625 -1.4375 C 2.140625 -1.101562 2.242188 -0.820312 2.453125 -0.59375 C 2.660156 -0.363281 2.988281 -0.25 3.4375 -0.25 C 3.945312 -0.25 4.332031 -0.40625 4.59375 -0.71875 C 4.863281 -1.03125 5 -1.421875 5 -1.890625 L 5 -4.59375 C 5 -4.84375 4.945312 -5.019531 4.84375 -5.125 C 4.738281 -5.238281 4.5625 -5.296875 4.3125 -5.296875 L 4.3125 -5.4375 L 5.984375 -5.4375 L 5.984375 -5.296875 C 5.742188 -5.285156 5.566406 -5.226562 5.453125 -5.125 C 5.347656 -5.019531 5.296875 -4.828125 5.296875 -4.546875 L 5.296875 -1.921875 C 5.296875 -1.265625 5.101562 -0.757812 4.71875 -0.40625 C 4.34375 -0.0625 3.796875 0.109375 3.078125 0.109375 C 2.578125 0.109375 2.160156 0.03125 1.828125 -0.125 C 1.503906 -0.289062 1.265625 -0.503906 1.109375 -0.765625 C 0.953125 -1.035156 0.875 -1.34375 0.875 -1.6875 L 0.875 -4.6875 C 0.875 -4.925781 0.8125 -5.082031 0.6875 -5.15625 C 0.570312 -5.238281 0.378906 -5.285156 0.109375 -5.296875 L 0.109375 -5.4375 L 2.796875 -5.4375 Z M 2.796875 -5.296875 "/></g></g></g><g fill="#000000" fill-opacity="1"><g transform="translate(46.865534, 36.117305)"><g><path d="M 1.3125 -3.75 C 1.445312 -3.75 1.5625 -3.734375 1.65625 -3.703125 C 1.75 -3.679688 1.867188 -3.644531 2.015625 -3.59375 C 2.117188 -3.550781 2.191406 -3.53125 2.234375 -3.53125 C 2.296875 -3.53125 2.347656 -3.546875 2.390625 -3.578125 C 2.429688 -3.617188 2.476562 -3.675781 2.53125 -3.75 L 2.625 -3.75 L 2.6875 -2.515625 L 2.59375 -2.515625 C 2.476562 -2.816406 2.3125 -3.050781 2.09375 -3.21875 C 1.875 -3.394531 1.632812 -3.484375 1.375 -3.484375 C 1.21875 -3.484375 1.097656 -3.445312 1.015625 -3.375 C 0.929688 -3.300781 0.890625 -3.207031 0.890625 -3.09375 C 0.890625 -2.957031 0.953125 -2.84375 1.078125 -2.75 C 1.203125 -2.65625 1.398438 -2.546875 1.671875 -2.421875 C 1.929688 -2.304688 2.140625 -2.191406 2.296875 -2.078125 C 2.460938 -1.972656 2.601562 -1.835938 2.71875 -1.671875 C 2.84375 -1.515625 2.90625 -1.316406 2.90625 -1.078125 C 2.90625 -0.859375 2.847656 -0.65625 2.734375 -0.46875 C 2.628906 -0.289062 2.476562 -0.148438 2.28125 -0.046875 C 2.09375 0.0546875 1.878906 0.109375 1.640625 0.109375 C 1.492188 0.109375 1.359375 0.09375 1.234375 0.0625 C 1.117188 0.03125 1 -0.0078125 0.875 -0.0625 C 0.851562 -0.0703125 0.8125 -0.0859375 0.75 -0.109375 C 0.6875 -0.128906 0.632812 -0.140625 0.59375 -0.140625 C 0.5 -0.140625 0.414062 -0.0546875 0.34375 0.109375 L 0.28125 0.109375 L 0.1875 -1.203125 L 0.28125 -1.203125 C 0.414062 -0.867188 0.59375 -0.613281 0.8125 -0.4375 C 1.03125 -0.257812 1.273438 -0.171875 1.546875 -0.171875 C 1.703125 -0.171875 1.832031 -0.210938 1.9375 -0.296875 C 2.050781 -0.390625 2.109375 -0.5 2.109375 -0.625 C 2.109375 -0.757812 2.066406 -0.863281 1.984375 -0.9375 C 1.898438 -1.019531 1.773438 -1.109375 1.609375 -1.203125 C 1.535156 -1.242188 1.460938 -1.28125 1.390625 -1.3125 C 1.328125 -1.34375 1.273438 -1.367188 1.234375 -1.390625 C 0.992188 -1.503906 0.800781 -1.601562 0.65625 -1.6875 C 0.519531 -1.78125 0.398438 -1.90625 0.296875 -2.0625 C 0.191406 -2.21875 0.140625 -2.40625 0.140625 -2.625 C 0.140625 -2.945312 0.25 -3.210938 0.46875 -3.421875 C 0.6875 -3.640625 0.96875 -3.75 1.3125 -3.75 Z M 1.3125 -3.75 "/></g></g></g></svg>